Coordinates
version=1
nRows=12
nColumns=24
inDegrees=yes

Units are S.I. units (second, meters, Newtons, ...)
Angles are in degrees.

endheader
time	pelvis_tilt	pelvis_list	pelvis_rotation	pelvis_tx	pelvis_ty	pelvis_tz	hip_flexion_r	hip_adduction_r	hip_rotation_r	knee_angle_r	ankle_angle_r	subtalar_angle_r	mtp_angle_r	hip_flexion_l	hip_adduction_l	hip_rotation_l	knee_angle_l	ankle_angle_l	subtalar_angle_l	mtp_angle_l	lumbar_extension	lumbar_bending	lumbar_rotation
      6.37000000	      2.13836144	      4.53553974	     -2.94073048	     -1.61135703	      0.89282044	      0.18724505	     18.95440790	     -6.80409471	     -6.07195368	    -61.34544564	      5.02178959	     -4.47583268	      0.00000000	      0.44800467	     11.83749799	      8.32477297	    -11.21637696	     13.02020095	    -11.99783356	      0.00000000	    -23.18335435	     -3.32267539	     -5.23088093
      6.38000000	      2.07047458	      4.39432409	     -2.63903139	     -1.60242991	      0.89284371	      0.18719829	     19.88958229	     -6.63991634	     -6.24096807	    -59.83754407	      6.43049121	     -4.11336248	      0.00000000	     -0.38471512	     11.68435815	      8.93615405	    -10.80841525	     13.28767287	    -12.14414036	      0.00000000	    -23.25497542	     -3.07747129	     -5.50705438
      6.39000000	      1.93585144	      4.27919320	     -2.41516561	     -1.59347462	      0.89265614	      0.18738303	     20.83957482	     -6.43174995	     -6.27357112	    -58.10831433	      7.71177495	     -3.60305571	      0.00000000	     -1.11474701	     11.53006403	      9.30242880	    -10.43321081	     13.60428377	    -12.08827952	      0.00000000	    -23.23157640	     -2.90263400	     -5.63017066
      6.40000000	      1.86413165	      4.26428214	     -2.01241683	     -1.58449338	      0.89238647	      0.18737143	     21.60852301	     -6.41762245	     -6.49725832	    -56.18288478	      8.96611566	     -2.90371954	      0.00000000	     -1.91568434	     11.47300444	      9.85543112	    -10.07443116	     13.88215448	    -12.07959901	      0.00000000	    -23.28500809	     -2.81223401	     -6.02313876
      6.41000000	      1.80106612	      4.25046963	     -1.63101066	     -1.57551496	      0.89203912	      0.18752255	     22.27945193	     -6.34250559	     -6.61083400	    -54.02750876	      9.98559544	     -2.25287747	      0.00000000	     -2.73650899	     11.39098670	     10.51850184	     -9.70229392	     14.12823025	    -12.09620685	      0.00000000	    -23.36180984	     -2.74307829	     -6.43108164
      6.42000000	      1.73682857	      4.25685703	     -1.24620236	     -1.56648023	      0.89153157	      0.18771034	     22.85828273	     -6.27716354	     -6.71081654	    -51.66861320	     10.85236878	     -1.68012257	      0.00000000	     -3.55667025	     11.31710159	     11.18098008	     -9.33237180	     14.40232340	    -12.15622206	      0.00000000	    -23.43041065	     -2.69542916	     -6.79247526
      6.43000000	      1.60083104	      4.32431808	     -0.86764719	     -1.55734228	      0.89079564	      0.18796742	     23.43532871	     -6.26008819	     -6.76037659	    -49.14567566	     11.55426305	     -1.13304098	      0.00000000	     -4.29058056	     11.28864572	     11.71064297	     -8.98095332	     14.68714027	    -12.06736358	      0.00000000	    -23.37470658	     -2.73297271	     -7.12706674
      6.44000000	      1.47583643	      4.39977535	     -0.44977173	     -1.54818883	      0.88996095	      0.18825677	     23.89384715	     -6.23777601	     -6.79305262	    -46.43045316	     12.06725057	     -0.75636668	      0.00000000	     -5.03922431	     11.24886780	     12.35144118	     -8.63885911	     14.97267005	    -12.00870198	      0.00000000	    -23.35911782	     -2.77409654	     -7.55327950
      6.45000000	      1.41670674	      4.51561131	      0.00068821	     -1.53899656	      0.88911637	      0.18854364	     24.17487689	     -6.24495787	     -6.76691109	    -43.53935340	     12.37761270	     -0.55001486	      0.00000000	     -5.85823900	     11.23733381	     13.10200952	     -8.31839128	     15.19680610	    -12.04881613	      0.00000000	    -23.41735684	     -2.84403867	     -8.08550090
      6.46000000	      1.31521470	      4.65368386	      0.40389359	     -1.52966659	      0.88808554	      0.18891544	     24.41827234	     -6.24829272	     -6.65849264	    -40.51124613	     12.55294360	     -0.43451165	      0.00000000	     -6.63976232	     11.23863667	     13.78273936	     -7.99110154	     15.41541626	    -12.08546498	      0.00000000	    -23.40261250	     -2.95628826	     -8.53981906
      6.47000000	      1.14808830	      4.81455331	      0.78196423	     -1.52019971	      0.88685804	      0.18935796	     24.64649368	     -6.25356483	     -6.47551333	    -37.36188781	     12.56870910	     -0.43478516	      0.00000000	     -7.34851276	     11.25278111	     14.37817134	     -7.68014195	     15.65895783	    -12.04047866	      0.00000000	    -23.28083930	     -3.10831521	     -8.95779466
      6.48000000	      1.12880168	      4.99899308	      1.17921372	     -1.51065932	      0.88576959	      0.18972831	     24.60603010	     -6.29840784	     -6.26762334	    -34.09281706	     12.49563465	     -0.40503468	      0.00000000	     -8.22084953	     11.27929213	     15.04674906	     -7.38532682	     15.81455222	    -12.08951025	      0.00000000	    -23.35186516	     -3.24679774	     -9.48266023
